<?xml version="1.0" encoding="iso-8859-1"?>
<!-- Generator: Adobe Illustrator 16.0.0, SVG Export Plug-In . SVG Version: 6.00 Build 0)  -->
<!DOCTYPE svg PUBLIC "-//W3C//DTD SVG 1.1//EN" "http://www.w3.org/Graphics/SVG/1.1/DTD/svg11.dtd">
<svg version="1.1" id="Capa_1" xmlns="http://www.w3.org/2000/svg" xmlns:xlink="http://www.w3.org/1999/xlink" x="0px" y="0px"
	 width="35.053px" height="35.053px" viewBox="0 0 35.053 35.053" style="enable-background:new 0 0 35.053 35.053;"
	 xml:space="preserve">
<g>
	<path d="M17.168,0C10.9,0,5.277,3.208,2.094,8.591L1.254,7.78C0.967,7.503,0.68,7.454,0.507,7.635
		C0.4,7.745,0.348,7.933,0.356,8.178l0.156,4.667c0.02,0.586,0.342,0.632,0.44,0.632c0.157,0,0.331-0.094,0.502-0.271l3.234-3.368
		c0.297-0.31,0.267-0.529,0.223-0.632c-0.042-0.1-0.173-0.267-0.569-0.267L3.316,8.975c2.979-4.843,8.141-7.726,13.854-7.726
		c8.976,0,16.277,7.302,16.277,16.276c0,8.976-7.303,16.277-16.277,16.277c-6.956,0-13.144-4.416-15.399-10.99
		c-0.109-0.316-0.479-0.496-0.793-0.388c-0.158,0.054-0.285,0.166-0.359,0.315c-0.074,0.15-0.084,0.32-0.03,0.479
		c2.429,7.077,9.093,11.834,16.582,11.834c9.665,0,17.527-7.863,17.527-17.527C34.695,7.863,26.833,0,17.168,0z"/>
</g>
<g>
</g>
<g>
</g>
<g>
</g>
<g>
</g>
<g>
</g>
<g>
</g>
<g>
</g>
<g>
</g>
<g>
</g>
<g>
</g>
<g>
</g>
<g>
</g>
<g>
</g>
<g>
</g>
<g>
</g>
</svg>
